<svg height='100px' width='100px'  fill="#000000" xmlns="http://www.w3.org/2000/svg" xmlns:xlink="http://www.w3.org/1999/xlink" xmlns:xodm="http://www.corel.com/coreldraw/odm/2003" xml:space="preserve" version="1.1" style="shape-rendering:geometricPrecision;text-rendering:geometricPrecision;image-rendering:optimizeQuality;" viewBox="0 0 60000 60000" x="0px" y="0px" fill-rule="evenodd" clip-rule="evenodd"><defs><style type="text/css">
   
    .fil0 {fill:#000000;fill-rule:nonzero}
   
  </style></defs><g><path class="fil0" d="M47479.79 15015.72c-22.59,68.91 -47.23,137.12 -73.93,204.61 -22.86,57.8 -47.19,114.79 -72.81,171.02 -16.82,36.94 -10.57,77.91 16.5,108.15 247.61,276.63 481.89,554.21 702.23,832.21 31.22,39.39 85.88,49.55 129.18,24.01 43.28,-25.54 60.83,-78.28 41.47,-124.66 -173.73,-416.05 -359.84,-825.65 -557.88,-1228.31 -18.32,-37.25 -55.33,-58.53 -96.74,-55.62 -41.41,2.9 -75.08,29.15 -88.02,68.59zm1073.96 16750.24c-95.49,147.49 -193.11,293.68 -292.47,438.18 -46.22,67.21 -92.83,134.08 -139.79,200.54 -14.78,20.91 -20.61,43.76 -17.67,69.2 16.43,142.05 28.24,283.2 35.29,423.39 2.39,47.43 36.5,85.74 83.34,93.59 46.84,7.86 91.59,-17.24 109.31,-61.31 142.54,-354.46 276.15,-713.52 400.54,-1076.86 16.45,-48.05 -5.23,-100.14 -50.91,-122.33 -45.68,-22.2 -100.04,-7.04 -127.64,35.6zm-1084.91 1509.45c-935.15,1176.88 -1939.79,2154.39 -2770.66,2676.69 -95.81,60.23 -191.1,117.22 -283.42,172.42 -616.26,368.52 -1085.44,649.1 -1242.62,1859.43 -9.11,70.14 -18.16,142.28 -27.15,216.17 -4.81,39.53 12.65,75.98 46.47,97 33.82,21.03 74.24,20.56 107.56,-1.25 242.57,-158.76 527.55,-270.8 842.48,-394.57 103.52,-40.68 210.41,-82.7 272.31,-108.27 931,-384.62 1566.78,-788.73 2039.86,-1281.97 42.03,-43.82 82.89,-88.48 122.63,-134.03 3.68,-4.21 6.53,-8.06 9.49,-12.8 233.22,-373.65 455.61,-754.82 666.65,-1143.09 7.16,-13.17 10.84,-25.77 11.89,-40.72 1.82,-25.88 7.76,-51.93 18.16,-77.25 16.59,-40.11 34.17,-84.72 52.68,-133.64 195.88,-517.69 297.88,-1063.05 311.93,-1629.44 1.09,-43.72 -24.73,-81.55 -65.84,-96.48 -41.12,-14.93 -85.2,-2.46 -112.42,31.8zm-5005.69 6643.21c69.79,-718.67 139.62,-1417.81 214.85,-1997.17 188.55,-1451.83 747.16,-1785.9 1480.9,-2224.67 87.9,-52.56 178.62,-106.82 273.66,-166.56 928.55,-583.72 2096.07,-1781.1 3122.73,-3191.3 16.21,-22.26 22.23,-47.2 17.95,-74.4 -220.52,-1401.71 -918.25,-2899.67 -2017.74,-4406.66 -26.33,-36.1 -71.32,-50.17 -113.54,-35.54 -1136.36,393.83 -2436.47,649.35 -3861.07,763.1 -620.62,49.56 -1265.52,72.23 -1931.16,67.96 -43.51,-0.28 -80.68,25.93 -95.04,67.01 -202.08,578.37 -411.82,1141.83 -628.47,1689.77 -267.28,675.98 -550.52,1342.34 -848.15,1997.33 -90.6,201.06 -327.06,290.6 -528.12,200 -201.06,-90.6 -290.6,-327.06 -200,-528.12 287.16,-631.96 565.11,-1286.68 832.51,-1962.97 177.65,-449.31 348.32,-902.05 511.51,-1357.68 11.04,-30.82 7.17,-62.12 -11.04,-89.33 -18.21,-27.22 -45.69,-42.71 -78.4,-44.25 -3451.25,-162.12 -7383.71,-1012.15 -11360.52,-2585.22l-0.2 -0.08c-2907.11,-1149.93 -5532.63,-2565.69 -7761.62,-4120.36 -26.87,-18.74 -58.13,-23.21 -89.18,-12.73 -31.04,10.48 -53.2,32.97 -63.22,64.16 -425.68,1324.73 -745.15,2630.05 -975.12,3906.43 -5.05,28.05 0.99,54.06 17.88,77.01 16.9,22.96 39.95,36.44 68.24,39.95 2485.63,307.89 5183.49,992.63 7906.11,2069.58 128.36,50.69 191.31,195.86 140.62,324.22 -50.69,128.36 -195.86,191.31 -324.22,140.62 -2695.25,-1066.13 -5362.3,-1741.99 -7814.18,-2042.76 -53.52,-6.56 -102.64,30.54 -110.97,83.82 -164.33,1050.36 -269.14,2079.62 -323.84,3082.32 -171.93,3151.1 149.14,6042.49 668.07,8504.88 44.87,215.73 -93.65,427.01 -309.38,471.88 -215.73,44.87 -427.01,-93.65 -471.88,-309.38 -531.17,-2520.47 -859.77,-5480.71 -683.69,-8708 55.29,-1013.5 160.31,-2053.13 324.28,-3113.49 4.4,-28.44 -2.47,-54.57 -20.28,-77.17 -17.81,-22.61 -41.61,-35.39 -70.29,-37.77 -1183.49,-98.09 -2307.82,-104.56 -3350.3,-21.33 -1648.72,131.65 -3088.26,487.13 -4225.76,1058.77 -28.56,14.35 -47.07,38.76 -53.22,70.12 -6.15,31.37 1.78,60.96 22.81,85.03 1129.1,1292.55 2529.93,2570.68 4157.96,3785.31 628.99,469.28 983.81,795.89 1241.77,1237.89 251.79,431.46 384.36,933.2 574.82,1764.02 204.74,893.12 379.58,2001.72 553.71,3105.8 341.63,2166.25 680.41,4314.29 1131.02,4563.21 455.13,251.43 1346.2,-1114.57 2263.69,-2521.09 417.72,-640.39 840.31,-1288.21 1253.98,-1815.31 285.43,-363.68 593.75,-634.96 917.71,-826.83 656.56,-388.85 1359.33,-444.71 2057.19,-276.74 663.11,159.6 1313.77,521.83 1906.79,987.24 883.35,693.27 1652.83,1625.55 2140.37,2448.74 278.91,470.92 591.29,1035.34 902.66,1597.92 1031.39,1863.55 2051.06,3705.89 2879.26,3841.85 819.19,134.47 1781.78,-1479.14 2715.17,-3043.8 530.92,-889.99 1053.24,-1765.57 1582.03,-2359.66 317.28,-356.48 758.28,-647.77 1231.35,-824.84 381.47,-142.78 786.49,-212.67 1168.35,-184.61 409.88,30.12 795.24,169.47 1106.05,446.12 208.72,185.78 380.02,431.75 497.62,745.94 40.61,108.52 325.5,789.06 685.32,1470.86 193.18,366.05 405.63,726.52 606.37,981.38 113.64,144.26 217.31,234.22 309.2,277.97 51.99,24.75 93.48,30.74 124.21,20.97 43.35,-13.79 90,-55.23 136.76,-119.19 87.17,-119.23 154.43,-293.78 193.35,-508.2 67.35,-370.92 138.14,-851.54 208.25,-1327.6 57.04,-387.35 113.63,-771.68 172.56,-1117.23 0.42,-2.49 0.72,-4.63 0.96,-7.14zm5642.53 -8377.83c1619.27,-2483.78 1809,-3876.9 1809,-6828.04 0,-230.49 -3.99,-460.02 -11.01,-688.81l-3.2 8.26c-0.35,0.91 -0.64,1.7 -0.97,2.62 -3.64,10.23 -7.67,20.29 -12.09,30.13 -0.6,1.34 -1.08,2.49 -1.62,3.85 -624.09,1558.31 -1948.88,2729.51 -3775.9,3498.11 -28.95,12.17 -48.85,34.61 -57.43,64.82 -8.59,30.21 -3.48,59.75 14.73,85.33 912.88,1282.45 1546.14,2563.21 1857.8,3793.67 9.97,39.36 40.48,67.44 80.53,74.09 40.05,6.66 77.99,-10.03 100.16,-44.03zm-4591.92 16947.63c-99.11,554.5 -229,1056.37 -379.67,1509.18 -208.12,625.45 -455.33,1153.62 -715.75,1595.74 -375.51,637.51 -734.48,910.92 -1090.68,878.98 -357.62,-32.09 -650.87,-365.15 -905.62,-941.28 -211.3,-477.88 -353.47,-998.01 -498.06,-1527.03 -138.19,-505.62 -278.73,-1019.78 -488.97,-1508.81 -44.07,-102.5 -88.82,-212.29 -134.64,-324.72 -186.47,-457.5 -391.96,-961.68 -779.03,-1475.54 -191.37,-254.04 -594.87,-693.13 -1122.21,-859.12 -324.69,-102.2 -703.1,-99.13 -1116.47,123.87 -33.22,17.87 -68.7,27.43 -104.02,29.41 -11.52,0.65 -21.28,2.83 -31.97,7.17 -658.49,266.98 -954.91,486.2 -1235.89,1422.42 -271.16,903.47 -544.22,2161.4 -819.39,3429.09 -564.33,2599.86 -1137.13,5238.69 -1981.4,5392.59 -1000.97,182.44 -1748.21,-2165.61 -2504.72,-4542.82 -656.93,-2064.31 -1321.91,-4153.9 -1721.49,-4153.9 -1224.2,0 -2154.05,-15.92 -3066.46,-123.17 -916.34,-107.7 -1799.7,-306.39 -2921.05,-671.42 -96.74,-31.49 -240.17,-83.12 -389.92,-137.02 -685.64,-246.8 -1548.48,-557.38 -1931.14,-77.7 -554.11,694.59 -1147.97,1298.96 -1710.92,1648.25 -564.07,350 -1111.3,457.21 -1594.54,191.11 -722.19,-397.69 -838.58,-1127.01 -989.11,-2070.43 -185.32,-1161.43 -432.4,-2709.76 -2158.6,-4174.37 -2515.02,-2133.89 -4561.89,-4802.89 -5964.71,-7831.08 -1350.67,-2915.62 -2104.45,-6162.99 -2104.45,-9585.07 0,-6304.53 2555.45,-12012.26 6687.05,-16143.85 4131.59,-4131.6 9839.32,-6687.05 16143.85,-6687.05 6304.53,0 12012.26,2555.45 16143.85,6687.05 3031.39,3031.39 5214.23,6911.29 6161.85,11252.81 0.14,0.64 0.27,1.18 0.42,1.81 18.07,76 34.52,153.87 49.39,233.28 0.12,0.66 0.23,1.23 0.37,1.89 311.21,1502.62 475.02,3059.2 475.02,4654.06 0,2402.49 -371.39,4718.87 -1059.89,6894.77 -367.94,1162.8 -826.65,2285.49 -1367.77,3359.8 -1.4,2.77 -2.47,5.19 -3.62,8.08 -292.44,736.23 -609.24,1338.49 -1049.89,1861.07 -3.15,3.73 -5.61,7.1 -8.21,11.23 -214.29,340.82 -437.34,675.61 -668.86,1004.03 -1360.06,1929.35 -1974.04,5227.27 -2471.17,7897.56 -191.72,1029.86 -366.98,1971.04 -569.69,2730.95 -0.76,2.84 -1.3,5.29 -1.82,8.18zm-5694.08 -3022.02c519.85,245.97 904.71,668.38 1100.1,927.76 426.92,566.77 645.31,1102.59 843.49,1588.82 43.27,106.18 85.54,209.88 130.72,314.96 219.38,510.3 366.15,1047.21 510.45,1575.21 138.32,506.1 274.34,1003.7 474.64,1456.71 178.39,403.44 341.21,632.88 491.54,646.36 151.75,13.61 352.69,-184.34 618.04,-634.84 144.23,-244.85 284.16,-517.84 414.81,-821.13 14.37,-33.36 10.38,-69.04 -10.99,-98.41 -21.38,-29.38 -54.12,-44.13 -90.29,-40.7 -225.97,21.42 -436.84,-105.84 -637.67,-348.28 -333.99,-403.2 -626.67,-1249.38 -943.99,-2166.8 -265.02,-766.24 -548.4,-1585.51 -868.03,-2177.09 -230.92,-427.39 -438.97,-731.66 -650.6,-870.4 -146.06,-95.76 -319.78,-94.01 -548.33,28.49l-5.96 3.19c-327.41,175.5 -583.63,312.82 -829.99,436.37 -35.02,17.56 -55.61,51.35 -55.17,90.53 0.45,39.18 21.81,72.49 57.23,89.25zm-17624.45 -3213.68c94.38,-100.31 252.23,-105.12 352.54,-10.74 100.31,94.38 105.12,252.23 10.74,352.54 -332.1,354.29 -673.15,799.01 -1008.4,1236.2 -866.94,1130.52 -1698.61,2215.01 -2489.84,1844.19 -494.01,-231.51 -669.5,-751.64 -884.53,-1388.92 -45.49,-134.82 -93.06,-275.79 -154.04,-440.56 -211.54,-571.58 -462.36,-1185.62 -780.52,-1838.6 -317.95,-652.57 -701.93,-1341.51 -1179.16,-2061.74 -76.04,-114.88 -44.57,-269.67 70.31,-345.71 114.88,-76.04 269.67,-44.57 345.71,70.31 492.55,743.35 887.05,1450.7 1212.36,2118.38 325.13,667.27 582.46,1297.53 800.06,1885.48 52.87,142.86 106.58,302.02 157.94,454.24 177.44,525.88 322.26,955.09 622.81,1095.94 428.13,200.65 1140.18,-727.85 1882.42,-1695.75 342.87,-447.11 691.66,-901.93 1041.6,-1275.26zm14869.42 -4123.81c91.69,-103.01 249.53,-112.19 352.54,-20.5 103.01,91.69 112.19,249.53 20.5,352.54 -349.21,392.33 -709.72,996.66 -1076.16,1610.94 -761.41,1276.38 -1546.65,2592.69 -2493.13,2437.33 -849.31,-139.42 -1643.71,-1574.78 -2447.24,-3026.61 -206.28,-372.72 -413.24,-746.64 -641.24,-1131.61 -70.11,-118.65 -30.76,-271.68 87.89,-341.79 118.65,-70.11 271.68,-30.76 341.79,87.89 202.04,341.14 424.93,743.86 647.1,1145.27 744.27,1344.76 1480.09,2674.26 2091.78,2774.67 612.35,100.51 1309.41,-1067.97 1985.31,-2201.01 379.87,-636.79 753.59,-1263.26 1130.86,-1687.12zm945.03 10964.23c46.38,-129.44 188.92,-196.78 318.36,-150.4 129.44,46.38 196.78,188.92 150.4,318.36 -132.65,367.32 -268.73,831.52 -403.34,1355.11 -149.3,580.75 -297.42,1237.84 -437.55,1919.36 -27.5,134.83 -159.11,221.84 -293.94,194.34 -134.83,-27.5 -221.84,-159.11 -194.34,-293.94 140.54,-683.55 290.49,-1347.97 443.41,-1942.8 138.62,-539.18 279.25,-1018.6 417,-1400.03zm-989.96 6103.8c-7.35,23.66 -14.74,47.27 -22.13,70.82 -145.83,464.58 -291.56,889.88 -400.27,1206.38 -222.57,648.02 -138.35,1079.24 70.05,1311.22 128.35,142.86 306.07,210.38 481.73,203.71 176.19,-6.68 350.66,-88.04 471.83,-242.82 202.44,-258.61 262.45,-720.62 -18.34,-1395.24 -123.5,-296.74 -253.77,-684.68 -375.26,-1097.3 -5.39,-18.3 -10.76,-36.65 -16.11,-55.02 -12.53,-43.04 -50.28,-71.63 -95.1,-72.04 -44.82,-0.41 -83.09,27.49 -96.4,70.29zm-498.69 -77.62c139.02,-442.83 272.98,-907.85 360.6,-1310.64 0.11,-0.49 0.19,-0.91 0.29,-1.4 19.1,-94.3 92.08,-173.09 192.14,-194.69 134.83,-29.12 267.75,56.58 296.87,191.41 89.47,412.49 207.68,876.98 334.92,1309.09 116.18,394.61 240.4,764.72 357.68,1046.52 362.08,869.94 251.66,1507.9 -50.02,1893.28 -216.62,276.71 -529.82,422.19 -846.83,434.22 -317.55,12.06 -638.66,-109.81 -870.41,-367.77 -317.31,-353.21 -463.31,-958.01 -171.61,-1807.3 110.66,-322.18 258.73,-754.23 396.37,-1192.72zm-27218.74 -25199.37c-50.69,128.36 -195.86,191.31 -324.22,140.62 -128.36,-50.69 -191.31,-195.86 -140.62,-324.22 339.96,-859.44 930.8,-1581.69 1726.95,-2163 22.87,-16.7 36.42,-39.47 40.16,-67.54 3.74,-28.07 -3.36,-53.59 -21.06,-75.7 -621.33,-776.26 -1148.49,-1556.59 -1572.66,-2331.25 -386.78,-706.38 -688.39,-1408.71 -898.55,-2100.01 -14.13,-46.48 -58.35,-75.64 -106.64,-70.31 -48.27,5.33 -85.06,43.4 -88.74,91.82 -42.42,558.57 -64.03,1122.96 -64.03,1692.39 0,3305.03 726.92,6438.99 2029.45,9250.69 1353.52,2921.78 3328.54,5497.05 5755.33,7556.08 1951.26,1655.57 2225.09,3371.56 2430.48,4658.75 115.7,725.14 205.16,1285.72 585.99,1495.43 194.81,107.27 472.21,28.82 791.4,-169.23 475.31,-294.92 1000.89,-835.5 1504.68,-1467.01 738.92,-926.27 1901.27,-507.89 2824.9,-175.42 116.23,41.83 227.48,81.88 368.04,127.64 1066.62,347.22 1902.51,535.69 2764.79,637.04 866.19,101.82 1774.41,116.93 2975.84,116.93 980.95,0 1735.48,2370.99 2480.87,4713.28 649.4,2040.65 1290.85,4056.27 1604.72,3999.06 316.37,-57.67 832.38,-2434.88 1340.76,-4776.97 278.02,-1280.84 553.91,-2551.8 835.03,-3488.45 434.3,-1447.04 878.29,-1618.08 2024.93,-2059.79l127.05 -49.02c833.56,-322.54 1193.16,-515.29 1975.47,-934.63l5.96 -3.19c522.13,-279.86 956.21,-259.41 1360.83,5.87 339.07,222.3 624.69,621.47 916.22,1161.04 344.44,637.5 640.84,1494.41 918.03,2295.83 253.35,732.48 489.61,1415.47 708.92,1776.77 18.65,30.71 49.51,48.08 85.45,48.09 35.91,0.01 66.8,-17.32 85.47,-48 351.66,-578.29 624.25,-2042.18 947.4,-3778.01 429.42,-2306.61 943.55,-5068.1 1959.56,-7119.48 19.16,-38.69 12.18,-83.18 -17.93,-114.11 -30.11,-30.92 -74.33,-39.13 -113.52,-21.06 -131.55,60.63 -268.78,120.46 -412.07,179.65 -128.96,53.28 -208.1,84.38 -284.81,114.53 -558.95,219.66 -984.48,386.91 -1114.86,1046.71 -82.39,416.92 -159.29,939.02 -237.01,1466.84 -66.48,451.41 -133.59,907.08 -214.49,1352.6 -61.11,336.63 -177.39,625.29 -333.97,839.46 -145.18,198.58 -327.91,339.27 -539.9,406.69 -224.61,71.44 -464.53,57.74 -708.59,-58.47 -198.46,-94.5 -399.32,-259.5 -593.56,-506.09 -232.1,-294.67 -470.62,-697.98 -684.51,-1103.26 -374.57,-709.76 -681.37,-1445.52 -725.94,-1564.62 -68.37,-182.67 -165.32,-323.33 -282,-427.18 -170.16,-151.46 -390.79,-228.47 -631.05,-246.12 -268.28,-19.71 -557.68,31.2 -833.97,134.61 -352.38,131.9 -679.27,347.07 -912.59,609.22 -483.94,543.7 -985.11,1383.82 -1494.53,2237.78 -1070.2,1794.01 -2173.89,3644.14 -3527.67,3421.92 -1208.39,-198.37 -2321.81,-2210.09 -3448.02,-4244.97 -285.89,-516.55 -572.68,-1034.73 -893.28,-1576.04 -443.28,-748.45 -1143.08,-1596.24 -1946.63,-2226.88 -511.72,-401.61 -1059.21,-710.82 -1597.41,-840.36 -503.47,-121.18 -1005.35,-83.91 -1466.55,189.24 -239.83,142.04 -473.23,349.44 -695.85,633.09 -402.37,512.72 -810.21,1137.91 -1213.34,1755.93 -1123.63,1722.54 -2214.9,3395.45 -3316.83,2786.71 -792.33,-437.69 -1161.68,-2779.57 -1534.14,-5141.33 -170.26,-1079.58 -341.22,-2163.57 -544.33,-3049.56 -172.11,-750.77 -288.6,-1198.5 -487.32,-1539.02 -192.56,-329.93 -489.77,-597.88 -1029.27,-1000.39 -1726.43,-1288.05 -3208.5,-2651.61 -4396.15,-4035.23 -33.92,-39.51 -92.02,-46.46 -134.29,-16.04 -738.28,531.34 -1282.99,1188.99 -1591.78,1969.65zm2103.3 -2869.18c1221.64,-646.28 2775.29,-1044.9 4556.19,-1187.09 1084.78,-86.62 2255.53,-78.29 3487.54,26.74 51.71,4.41 97.87,-31.05 106.95,-82.15 254.32,-1432.12 618.07,-2899.37 1113.73,-4388.85 13.84,-41.58 0.11,-85.41 -34.99,-111.66 -1381.26,-1032.97 -2588.68,-2117.69 -3590.18,-3219.43 -785.16,-863.75 -1445.02,-1739.65 -1965.32,-2611.69 -22.13,-37.1 -63.32,-55.34 -105.66,-46.79 -2549.59,514.5 -4520.05,1527.51 -5613.87,3016.33 -702.73,956.56 -876.75,1638.75 -779.87,2811.71 91.3,1105.22 480.41,2272.02 1130.73,3459.71 418.9,765.04 945.58,1537.74 1570.34,2307.79 30.39,37.46 81.77,47.94 124.41,25.38zm22025.95 4104.15c-117.03,-72.27 -153.32,-225.74 -81.05,-342.77 72.27,-117.03 225.74,-153.32 342.77,-81.05 1626.03,1004.69 3054.8,2097.49 4238.57,3225.91 1200.29,1144.16 2151.44,2327.41 2804.18,3495.51 66.87,120.27 23.59,271.99 -96.68,338.86 -120.27,66.87 -271.99,23.59 -338.86,-96.68 -627.62,-1123.14 -1547.66,-2266.1 -2712.4,-3376.37 -1160.74,-1106.47 -2561.85,-2178.1 -4156.53,-3163.41zm-24628.83 -12779.64c1106.74,-1669.67 3167.68,-2807.59 5855.43,-3388.44 31.48,-6.8 55.67,-26.06 69.38,-55.2 13.7,-29.16 13.07,-60.07 -1.79,-88.66 -896.16,-1724.26 -1229.07,-3418.07 -884.73,-4956.28 10.03,-44.8 -10.57,-89.24 -51.27,-110.48 -40.65,-21.23 -88.8,-12.83 -119.86,20.92 -2225.08,2417.55 -3916.2,5334.13 -4886.88,8562.62 6.76,4.98 13.34,10.16 19.72,15.52zm6878.75 -3578c530.85,-82.9 1082.04,-146.4 1651.8,-189.91 1857.94,-141.89 3914.57,-74.27 6093.36,208.75 42,5.46 81.01,-14.59 101.02,-51.92 646.8,-1206.74 1334.29,-2338.08 2051.2,-3382.49 26.67,-38.85 23.09,-89.48 -8.77,-124.2 -13.58,-14.81 -27.12,-29.62 -40.59,-44.44 -1832.39,-2015.77 -2675.13,-4135.34 -2140.96,-5932.01 9.49,-31.9 3.56,-63.56 -16.86,-89.85 -20.42,-26.28 -49.6,-39.86 -82.86,-38.56 -284.59,11.1 -564.62,27.56 -839.66,49.52 -1846.53,147.43 -3466.81,537.96 -4763.28,1163.6 -4.38,2.11 -7.98,4.18 -12.02,6.88 -794.23,529.75 -1552.1,1109.75 -2269.07,1735.41 -4.8,4.19 -8.57,8.14 -12.54,13.13 -220.39,277.29 -408.22,573.49 -561.22,888.38 -12.77,26.29 -13.74,53.78 -2.87,80.91 18.43,45.98 28.59,96.18 28.59,148.74 -0.05,48.92 -9.07,98.64 -28.12,146.89 -628.43,1588.7 -315.46,3444.75 749.99,5360.96 20.76,37.35 60.64,56.81 102.86,50.21zm8794.61 170.55c2747.13,436.04 5663.22,1204.41 8602.61,2316.61 418.1,158.19 835.11,323.41 1250.55,495.2 5286.36,2186.02 9635.45,5193.61 12421.56,8300.06 244.29,272.38 476.58,545.64 696.56,819.28 27.8,34.58 72.93,46.66 114.27,30.54 1761.65,-686.61 3025.22,-1750.37 3588.94,-3175.35l0.05 -0.13c199.54,-504.45 334.49,-1186.87 381.22,-1888.48 36.5,-548.02 19.02,-1102.43 -63.65,-1587.12 -0.19,-1.13 -0.38,-2.09 -0.61,-3.22 -89.44,-437.26 -191.91,-869.79 -306.85,-1297.2 -1.74,-6.47 -3.74,-11.85 -6.68,-17.87 -475.46,-974.76 -1159.05,-1968.77 -2021.54,-2955.69 -20.84,-23.85 -48.73,-35.67 -80.36,-34.07 -31.64,1.6 -58.18,16.22 -76.5,42.07 -943.5,1331.47 -2769.24,2124.85 -5099.17,2349.74 -48.68,4.69 -86.21,42.81 -90.1,91.56 -60.75,761.85 -148.28,1540.07 -263.25,2331.5 -31.06,218.32 -233.24,370.12 -451.56,339.06 -218.32,-31.06 -370.12,-233.24 -339.06,-451.56 105.55,-726.56 187.52,-1441.23 246.38,-2141.38 2.47,-29.37 -6.71,-55.6 -26.95,-77.03 -20.24,-21.44 -45.92,-32.07 -75.39,-31.28 -2635.69,71.51 -5805.93,-507.97 -9016.44,-1777.92 -3091.86,-1223.01 -5718.58,-2887.92 -7582.25,-4666.8 -22.03,-21.03 -49.4,-30.34 -79.68,-27.09 -30.28,3.24 -55.06,18.12 -72.14,43.33 -597.51,881.87 -1173.8,1826.39 -1721.97,2826.41 -16.14,29.44 -16.88,61.96 -2.1,92.1 14.78,30.14 40.95,49.47 74.11,54.73zm22425.54 12049.65c-167.07,-202.11 -341.07,-404.09 -521.92,-605.74 -2738.74,-3053.63 -7023.69,-6014.14 -12239.92,-8171.16 -402.54,-166.46 -814.9,-329.68 -1236.87,-489.34 -2994.41,-1133.02 -5962.14,-1904.95 -8745.81,-2328.24 -42.97,-6.54 -83.48,13.99 -103.64,52.5 -888.37,1697.54 -1695.18,3543.83 -2388.72,5507.03 -15.1,42.72 -0.6,88.55 36.32,114.81 2227.34,1584.07 4881.37,3029.8 7836.6,4198.77l0.12 0.05c4010.21,1586.28 7964.91,2421.53 11398.42,2543.04 45.05,1.59 84.24,-25.65 98.44,-68.44 106.79,-321.7 207.88,-638.1 303.3,-949.07 133.73,-435.83 257.05,-860.13 370.03,-1272.66 57.81,-212.28 276.79,-337.5 489.07,-279.69 212.28,57.81 337.5,276.79 279.69,489.07 -120.76,440.94 -246.22,873.75 -376.29,1297.66 -68.8,224.21 -138.86,446.62 -210.17,667.1 -10.2,31.55 -5.1,63.18 14.51,89.92 19.61,26.74 48.25,41.11 81.41,40.85 525.58,-4.09 1037.02,-25.86 1532.21,-65.4 1222.9,-97.63 2344.55,-302.44 3335.94,-611.88 32.79,-10.23 56.28,-34.06 66.06,-66.99 9.78,-32.92 3.1,-65.72 -18.78,-92.19zm-23796.21 -11739.04c-2048.32,-250.89 -3982.1,-306.91 -5735.04,-173.03 -456.33,34.85 -900.01,82.69 -1330.16,143.11 -34.74,4.88 -62.3,25.39 -76.95,57.26 -14.65,31.87 -12.27,66.15 6.64,95.69 457.67,714.92 1016.12,1434.91 1665.56,2149.36 907.13,997.93 1990.13,1982.23 3223.6,2925.6 26.14,20 57.36,25.79 88.94,16.51 31.58,-9.28 54.71,-31.04 65.88,-62 639.23,-1771.27 1369.65,-3448.16 2168.37,-5007.66 15.36,-29.99 15.13,-62.69 -0.66,-92.45 -15.8,-29.77 -42.73,-48.29 -76.18,-52.39zm-2479.44 -10345.2c568.51,-103.13 1164.31,-179.62 1784.12,-229.11 382.76,-30.57 774.97,-50.69 1175.5,-60.67 37.04,-0.92 68.36,-20.27 85.77,-52.97 206.9,-388.55 481.28,-738.3 815.82,-1048.67 34,-31.54 41.99,-80.52 19.77,-121.22 -22.22,-40.7 -67.72,-60.48 -112.63,-48.96 -1328.76,340.83 -2609.05,802.56 -3828.55,1372.62 -45.79,21.41 -68.27,72.76 -52.93,120.93 15.33,48.18 63.38,77.07 113.13,68.05zm4148.85 -289.87c1960.53,47.51 4091.67,325.5 6308.17,840.37 28.69,6.67 55.96,1.37 80.07,-15.55 1454.54,-1020.77 2921.21,-1664.82 4333.77,-1865.78 47.61,-6.78 82.96,-45.2 85.74,-93.21 2.79,-48 -27.87,-90.25 -74.36,-102.5 -1795.48,-472.76 -3680.48,-724.85 -5624.42,-724.85 -674.87,0 -1342.6,30.55 -2001.97,90.02 -17.81,1.61 -32.73,6.96 -47.49,17.06 -40.13,27.45 -85.98,48.01 -136.25,59.52 -897.93,207.3 -1665.22,525.04 -2263.2,949.95 -285.15,202.63 -531.75,430.16 -735.41,682.15 -24.53,30.36 -29.36,69.43 -12.97,104.85 16.39,35.42 49.3,57.02 88.32,57.97zm7618.5 1169.81c1408.88,381.17 2844.84,856.1 4286.87,1426.51 1935.01,765.4 3759.51,1647.64 5432.79,2609.45 36.42,20.93 79.68,17.58 112.44,-8.72 32.74,-26.3 45.37,-67.78 32.82,-107.86 -821.1,-2622.13 -2234.22,-4469.5 -4184.99,-5132.77 -1738.65,-591.15 -3708.55,-179.02 -5705.64,1031.33 -34.97,21.19 -52.9,59 -47.19,99.49 5.71,40.51 33.42,71.89 72.9,82.57zm10957.56 4779.03c1624.97,1018.87 3082.07,2110.72 4327.9,3236.24 317.24,286.6 620.8,575.53 910.03,866.1 25.71,25.83 60.48,35.38 95.78,26.31 35.29,-9.08 61.15,-34.21 71.21,-69.24 151.88,-528.57 230.39,-936.61 -67.9,-1423.95 -912.2,-1490.51 -1996.81,-2864.08 -3225.88,-4093.15 -1191.41,-1191.41 -2518.77,-2246.87 -3956.66,-3141.31 -41.23,-25.65 -93.66,-18.48 -126.5,17.3 -32.86,35.8 -35.47,88.71 -6.32,127.59 722.17,963.02 1293.63,2163.26 1708.09,3552.02 81.46,272.95 156.83,553.4 226.15,840.81 6.36,26.39 21.1,46.86 44.1,61.28zm5079.79 4651.29c-340.49,-350.81 -702.82,-699.85 -1085.87,-1045.91 -1075.41,-971.56 -2312.36,-1918.14 -3681.8,-2813.69 -34.24,-22.39 -76.11,-22.22 -110.16,0.46 -34.06,22.67 -50.36,61.26 -42.89,101.49 331.21,1782.92 448.58,3796.12 341.68,5959.64 -1.5,30.29 9.24,56.95 31.31,77.74 22.07,20.78 49.32,29.93 79.45,26.63 2129.9,-232.99 3749.5,-971.41 4482.16,-2185.02 23.81,-39.44 18.21,-88.28 -13.88,-121.34zm-5949.11 -4599.75c-1816.38,-1089.88 -3830.6,-2087.05 -5984.97,-2939.22 -1632.35,-645.69 -3255.82,-1167.36 -4839.24,-1567.63 -29.37,-7.42 -57.6,-2.16 -82.32,15.36 -762.99,540.6 -1526.04,1193.25 -2277.8,1946.98 -886.61,888.92 -1755.6,1916.51 -2589.23,3065.06 -29.38,40.47 -24.7,95.48 11.12,130.38 1795.65,1749.13 4375.61,3396.63 7434.7,4606.69 3150.16,1246.08 6247.43,1806.07 8797.78,1719.65 52,-1.78 93.69,-42.7 96.46,-94.66 135.15,-2534.91 -44.21,-4853.38 -520.76,-6820.41 -6.55,-27.01 -21.91,-47.9 -45.74,-62.2zm-12093.48 -4803.78c-2125.78,-456.76 -4161.59,-689.19 -6028.49,-703.57 -41.25,-0.31 -76.64,22.91 -92.78,60.87 -9.55,22.48 -18.84,45.09 -27.85,67.85l-0.07 0.19c-601.16,1519.75 119.13,3425.07 1775.15,5291.97 20.74,23.38 48.19,34.97 79.41,33.54 31.22,-1.44 57.5,-15.51 76,-40.7 826,-1124.31 1685.45,-2134.37 2562.16,-3013.38 559.51,-560.97 1126.71,-1069.1 1697.5,-1520.57 31.08,-24.59 44.34,-62.51 35.35,-101.11 -8.98,-38.6 -37.63,-66.76 -76.38,-75.09zm-14835.28 32484.81c169.13,140.66 192.22,391.81 51.56,560.94 -140.66,169.13 -391.81,192.22 -560.94,51.56 -1943.42,-1613.89 -3367.36,-3356.38 -4132.89,-4999.25 -783.38,-1681.14 -888.91,-3273.47 -178.58,-4552.11 107,-192.43 349.76,-261.69 542.19,-154.69 192.43,107 261.69,349.76 154.69,542.19 -576.52,1037.77 -468.28,2378.6 206.7,3827.11 718.66,1542.29 2068.12,3188.64 3917.27,4724.25z"></path></g></svg>